<?xml version="1.0" encoding="utf-8"?>
<svg width="800px" height="800px" viewBox="0 0 24 24" fill="none" xmlns="http://www.w3.org/2000/svg">
  <path d="M12 5.25C13.1046 5.25 14 4.35457 14 3.25C14 2.14543 13.1046 1.25 12 1.25C10.8954 1.25 10 2.14543 10 3.25C10 4.35457 10.8954 5.25 12 5.25Z" fill="#000000"/>
  <path d="M4.5 7.25C4.5 6.69772 4.94772 6.25 5.5 6.25H18.5C19.0523 6.25 19.5 6.69772 19.5 7.25C19.5 7.80228 19.0523 8.25 18.5 8.25H14V12.125L16.7786 20.4331C16.9538 20.9568 16.6714 21.5235 16.1477 21.6987C15.624 21.8739 15.0573 21.5915 14.8821 21.0678L12.7677 14.75H11.2323L9.11791 21.0678C8.94273 21.5915 8.37601 21.8739 7.8523 21.6987C7.3286 21.5235 7.04616 20.9568 7.22134 20.4331L10 12.125V8.25H5.5C4.94772 8.25 4.5 7.80228 4.5 7.25Z" fill="#000000"/>
</svg>
